Coordinates
version=1
nRows=9
nColumns=63
inDegrees=yes

Units are S.I. units (second, meters, Newtons, ...)
If the header above contains a line with 'inDegrees', this indicates whether rotational values are in degrees (yes) or radians (no).

endheader
time	pelvis_tilt	pelvis_list	pelvis_rotation	pelvis_tx	pelvis_ty	pelvis_tz	hip_flexion_r	hip_adduction_r	hip_rotation_r	knee_angle_r	knee_angle_r_beta	ankle_angle_r	subtalar_angle_r	mtp_angle_r	hip_flexion_l	hip_adduction_l	hip_rotation_l	knee_angle_l	knee_angle_l_beta	ankle_angle_l	subtalar_angle_l	mtp_angle_l	L5_S1_Flex_Ext	L5_S1_Lat_Bending	L5_S1_axial_rotation	L4_L5_Flex_Ext	L4_L5_Lat_Bending	L4_L5_axial_rotation	L3_L4_Flex_Ext	L3_L4_Lat_Bending	L3_L4_axial_rotation	L2_L3_Flex_Ext	L2_L3_Lat_Bending	L2_L3_axial_rotation	L1_L2_Flex_Ext	L1_L2_Lat_Bending	L1_L2_axial_rotation	L1_T12_Flex_Ext	L1_T12_Lat_Bending	L1_T12_axial_rotation	Abs_r3	Abs_r2	Abs_r1	Abs_t1	Abs_t2	neck_flexion	neck_bending	neck_rotation	arm_flex_r	arm_add_r	arm_rot_r	elbow_flex_r	pro_sup_r	wrist_flex_r	wrist_dev_r	arm_flex_l	arm_add_l	arm_rot_l	elbow_flex_l	pro_sup_l	wrist_flex_l	wrist_dev_l
2.444444	2.406101	-2.543080	90.788237	0.214862	0.869345	0.701550	7.367444	1.794754	-7.184066	8.900048	0.155335	24.630700	9.968257	0.000000	8.542487	-1.956885	-2.122783	11.527575	0.201194	23.795268	-3.917999	0.000000	0.262300	0.156307	-0.549450	0.487117	0.207889	-0.583791	0.430933	0.380046	-0.583791	0.299783	0.380046	-0.480769	0.243572	0.318742	-0.446429	0.149878	0.242120	-0.412088	1.873582	1.768180	-3.055879	0.000000	0.000000	11.536991	0.392289	-11.901383	-1.375321	-14.812289	35.702894	22.488524	61.776689	-6.012622	-1.452753	6.867096	-10.100629	116.636982	0.558573	1.922128	-10.240520	-21.848857
2.466667	2.242297	-2.552245	90.799034	0.215507	0.869137	0.701582	7.459437	1.667817	-7.082117	9.080769	0.158489	24.747455	9.795628	0.000000	8.455732	-1.832595	-2.253670	11.339463	0.197911	23.717978	-3.660678	0.000000	0.239767	0.120981	-0.529414	0.445272	0.160904	-0.562503	0.393914	0.294152	-0.562503	0.274030	0.294152	-0.463237	0.222648	0.246704	-0.430149	0.137003	0.187399	-0.397061	1.712634	1.368558	-2.944443	0.000000	0.000000	11.032790	-0.427192	-10.074095	-1.463408	-14.755416	36.074036	22.818215	61.698502	-6.214473	-1.702400	6.866261	-10.364396	116.858946	0.580663	2.164142	-10.251496	-21.312550
2.488889	2.074593	-2.507038	90.817918	0.216284	0.868956	0.701495	7.470098	1.544576	-6.980370	9.230953	0.161111	24.877088	9.653063	0.000000	8.318224	-1.710557	-2.334159	11.180862	0.195143	23.647811	-3.455158	0.000000	0.216394	0.085327	-0.473953	0.401865	0.113485	-0.503575	0.355513	0.207464	-0.503575	0.247316	0.207464	-0.414709	0.200943	0.173999	-0.385087	0.123647	0.132171	-0.355465	1.545678	0.965235	-2.635986	0.000000	0.000000	10.671387	-1.535000	-8.149464	-1.709763	-14.640315	35.747556	23.266216	62.099531	-6.301033	-1.854351	6.847811	-10.595321	117.273793	0.608818	2.511775	-10.341245	-20.754733
2.511111	1.910338	-2.395638	90.848450	0.217134	0.868829	0.701346	7.392178	1.427794	-6.899671	9.348121	0.163155	25.039652	9.574202	0.000000	8.120137	-1.594587	-2.369234	11.048175	0.192827	23.577805	-3.324772	0.000000	0.189383	0.050565	-0.385374	0.351703	0.067251	-0.409460	0.311137	0.122943	-0.409460	0.216446	0.122943	-0.337203	0.175861	0.103112	-0.313117	0.108213	0.078325	-0.289031	1.352743	0.572000	-2.143337	0.000000	0.000000	10.487839	-2.937050	-6.317917	-2.077590	-14.500429	34.895418	23.799629	62.679625	-6.306894	-1.954971	6.844725	-10.788288	117.847492	0.706329	2.838239	-10.571819	-20.134490
2.533333	1.756220	-2.235137	90.874515	0.218062	0.868736	0.701172	7.255729	1.329262	-6.799124	9.443504	0.164820	25.228552	9.496408	0.000000	7.879214	-1.493799	-2.381140	10.939107	0.190923	23.522413	-3.229194	0.000000	0.160903	0.018447	-0.262497	0.298813	0.024534	-0.278903	0.264347	0.044851	-0.278903	0.183896	0.044851	-0.229684	0.149414	0.037616	-0.213278	0.091940	0.028574	-0.196872	1.149313	0.208671	-1.459927	0.000000	0.000000	10.476361	-4.579241	-4.603588	-2.576091	-14.308561	33.326889	24.435666	63.718014	-6.149186	-1.958636	6.868663	-10.938170	118.469080	0.848972	3.265529	-10.715547	-19.440235
2.555556	1.627190	-2.049393	90.933899	0.218958	0.868647	0.700975	7.089759	1.255890	-6.696631	9.527507	0.166286	25.437569	9.411424	0.000000	7.625379	-1.418112	-2.369801	10.851343	0.189392	23.485362	-3.129517	0.000000	0.132716	-0.008796	-0.113500	0.246468	-0.011699	-0.120593	0.218040	-0.021387	-0.120593	0.151682	-0.021387	-0.099312	0.123240	-0.017937	-0.092218	0.075834	-0.013625	-0.085125	0.947980	-0.099505	-0.631251	0.000000	0.000000	10.735095	-6.429424	-3.118356	-3.207491	-14.066322	31.054054	25.183949	65.216749	-5.922264	-1.873235	6.937709	-11.031931	119.101792	1.051411	3.857065	-10.767886	-18.635147
2.577778	1.517087	-1.847651	91.002266	0.219808	0.868548	0.700828	6.922584	1.197768	-6.601549	9.631942	0.168109	25.661871	9.331143	0.000000	7.368231	-1.355913	-2.303566	10.780598	0.188157	23.440755	-3.100011	0.000000	0.103047	-0.031249	0.060694	0.191368	-0.041561	0.064488	0.169296	-0.075979	0.064488	0.117772	-0.075979	0.053108	0.095689	-0.063723	0.049314	0.058881	-0.048405	0.045521	0.736053	-0.353495	0.337563	0.000000	0.000000	11.306427	-8.413879	-1.856186	-3.928232	-13.814099	28.250938	26.024381	67.092901	-5.638382	-1.733622	7.064608	-11.058545	119.697979	1.297080	4.516940	-10.648658	-17.726645
2.600000	1.436390	-1.640690	91.134959	0.220534	0.868435	0.700705	6.752078	1.159587	-6.585444	9.745315	0.170088	25.896792	9.264083	0.000000	7.135487	-1.318434	-2.205714	10.753603	0.187686	23.421293	-3.037067	0.000000	0.074715	-0.046381	0.237357	0.138754	-0.061687	0.252191	0.122750	-0.112770	0.252191	0.085392	-0.112770	0.207687	0.069381	-0.094580	0.192852	0.042692	-0.071844	0.178017	0.533685	-0.524670	1.320106	0.000000	0.000000	12.129831	-10.387243	-0.576404	-4.692460	-13.544938	25.056855	26.927316	69.332488	-5.377286	-1.532973	7.229554	-11.027446	120.049132	1.607478	5.357601	-10.242751	-16.818522
2.622222	1.382010	-1.434352	91.310095	0.221072	0.868312	0.700638	6.606795	1.130234	-6.641506	9.912080	0.172998	26.144393	9.207687	0.000000	6.920911	-1.297492	-2.081775	10.744874	0.187533	23.403576	-2.964321	0.000000	0.046037	-0.054050	0.423469	0.085495	-0.071886	0.449936	0.075634	-0.131417	0.449936	0.052616	-0.131417	0.370535	0.042750	-0.110219	0.344069	0.026306	-0.083723	0.317602	0.328838	-0.611424	2.355208	0.000000	0.000000	13.153833	-12.388178	0.514347	-5.504900	-13.283845	21.477014	27.895282	71.898466	-5.096848	-1.305635	7.456369	-10.919236	120.333645	1.965817	6.342254	-9.740954	-15.948654
